<?xml version="1.0" encoding="UTF-8" standalone="no"?>
<svg
   viewBox="-30 0 350 100"
   version="1.1"
   id="svg1"
   sodipodi:docname="download-circle-outline.svg"
   width="350"
   height="100"
   inkscape:version="1.3 (1:1.3+202307231459+0e150ed6c4)"
   xmlns:inkscape="http://www.inkscape.org/namespaces/inkscape"
   xmlns:sodipodi="http://sodipodi.sourceforge.net/DTD/sodipodi-0.dtd"
   xmlns="http://www.w3.org/2000/svg"
   xmlns:svg="http://www.w3.org/2000/svg">
  <defs
     id="defs1" />
  <sodipodi:namedview
     id="namedview1"
     pagecolor="#ffffff"
     bordercolor="#666666"
     borderopacity="1.0"
     inkscape:showpageshadow="2"
     inkscape:pageopacity="0.0"
     inkscape:pagecheckerboard="0"
     inkscape:deskcolor="#d1d1d1"
     inkscape:zoom="2.875"
     inkscape:cx="167.30435"
     inkscape:cy="117.56522"
     inkscape:window-width="2522"
     inkscape:window-height="1376"
     inkscape:window-x="0"
     inkscape:window-y="0"
     inkscape:window-maximized="1"
     inkscape:current-layer="svg1" />
  <path
     d="m 129,70 v -8 h 32 v 8 H 129 M 161,42 145,58 129,42 h 10 V 26 h 12 v 16 h 10 M 145,10 c 22,0 40,18 40,40 0,22 -18,40 -40,40 -22,0 -40,-18 -40,-40 0,-22 18,-40 40,-40 m 0,8 c -17.68,0 -32,14.32 -32,32 0,17.68 14.32,32 32,32 17.68,0 32,-14.32 32,-32 0,-17.68 -14.32,-32 -32,-32 z"
     id="path1"
     style="stroke-width:4" />
</svg>
